<?xml version="1.0" standalone="no"?>
<!DOCTYPE svg PUBLIC "-//W3C//DTD SVG 20010904//EN"
 "http://www.w3.org/TR/2001/REC-SVG-20010904/DTD/svg10.dtd">
<svg version="1.0" xmlns="http://www.w3.org/2000/svg"
 width="150.000000pt" height="150.000000pt" viewBox="0 0 150.000000 150.000000"
 preserveAspectRatio="xMidYMid meet">
<metadata>
Created by potrace 1.14, written by Peter Selinger 2001-2017
</metadata>
<g transform="translate(0.000000,150.000000) scale(0.100000,-0.100000)"
fill="#000000" stroke="none">
<path d="M158 759 c-10 -26 6 -94 22 -94 8 0 15 7 16 15 0 9 -1 10 -3 3 -8
-24 -23 -13 -23 17 0 17 5 30 13 30 8 0 9 3 1 8 -6 4 -13 14 -16 21 -4 13 -5
13 -10 0z"/>
<path d="M518 714 l4 -55 31 3 c29 3 32 6 32 38 0 31 -3 35 -27 38 -16 2 -28
9 -28 18 0 8 -3 14 -7 14 -5 0 -6 -25 -5 -56z m57 -14 c0 -31 -31 -39 -40 -11
-8 26 2 43 23 39 11 -2 17 -13 17 -28z"/>
<path d="M968 758 c16 -16 15 -85 0 -91 -7 -3 -4 -6 7 -6 16 -1 20 5 20 32 0
22 5 32 15 32 10 0 15 -10 15 -32 0 -18 5 -33 11 -33 7 0 9 13 5 38 -5 28 -11
37 -26 37 -11 0 -23 8 -27 18 -4 9 -13 17 -20 17 -9 0 -9 -3 0 -12z"/>
<path d="M81 741 c-19 -12 -6 -41 19 -41 24 0 27 -18 4 -27 -9 -3 -20 0 -25 8
-7 11 -9 10 -9 -4 0 -14 6 -18 27 -15 38 4 43 35 7 48 -20 8 -24 14 -16 22 8
8 15 8 27 -2 8 -7 15 -8 15 -2 0 5 -7 13 -16 16 -19 7 -16 8 -33 -3z"/>
<path d="M267 730 c3 -11 9 -17 15 -14 5 3 4 12 -3 20 -16 19 -18 18 -12 -6z"/>
<path d="M218 733 c15 -6 16 -45 0 -61 -9 -9 -8 -12 8 -12 16 0 19 7 19 40 0
34 -3 40 -20 39 -11 0 -14 -3 -7 -6z"/>
<path d="M300 729 c0 -5 5 -7 10 -4 6 3 10 8 10 11 0 2 -4 4 -10 4 -5 0 -10
-5 -10 -11z"/>
<path d="M346 726 c4 -11 0 -16 -14 -16 -24 0 -44 -21 -34 -37 4 -6 24 -11 45
-11 28 0 37 4 37 17 0 14 -2 14 -10 1 -7 -11 -10 -7 -10 17 0 17 -4 35 -10 38
-6 3 -7 -1 -4 -9z m4 -36 c0 -12 -28 -25 -36 -17 -9 9 6 27 22 27 8 0 14 -5
14 -10z"/>
<path d="M397 703 c20 -50 21 -50 34 -17 l11 29 13 -30 13 -30 11 28 c6 16 11
32 11 37 0 5 6 11 13 13 6 3 -1 6 -18 6 -20 0 -26 -2 -16 -8 9 -6 11 -16 5
-32 -7 -23 -8 -23 -16 9 -5 17 -12 32 -17 32 -5 0 -12 -15 -16 -32 -7 -32 -7
-33 -14 -8 -4 15 -3 28 3 32 6 5 1 8 -11 8 -22 0 -22 -1 -6 -37z"/>
<path d="M614 716 c-9 -39 2 -58 33 -54 14 2 29 10 31 18 5 13 3 13 -11 1 -18
-14 -47 -9 -47 9 0 5 14 10 31 10 24 0 30 4 27 18 -2 10 -14 18 -30 20 -22 3
-29 -2 -34 -22z m51 4 c4 -6 -5 -10 -20 -10 -15 0 -24 4 -20 10 3 6 12 10 20
10 8 0 17 -4 20 -10z"/>
<path d="M698 733 c6 -3 12 -17 12 -33 0 -16 -6 -31 -12 -33 -7 -3 1 -6 17 -6
20 0 26 2 17 8 -16 10 -12 53 6 59 6 2 12 -4 12 -14 0 -13 3 -15 11 -7 18 18
2 31 -38 31 -21 0 -32 -3 -25 -5z"/>
<path d="M785 699 c0 -32 3 -39 20 -39 15 0 17 2 6 9 -18 12 -6 61 15 61 11 0
14 -5 9 -17 -5 -14 -3 -15 6 -6 17 17 3 32 -29 31 -25 -1 -27 -4 -27 -39z"/>
<path d="M881 703 c25 -49 25 -67 -1 -60 -20 5 -28 -7 -11 -17 15 -9 40 18 60
67 14 32 17 47 8 47 -7 0 -13 -12 -13 -26 -2 -27 -10 -41 -20 -31 -3 3 -7 17
-8 31 0 17 -7 26 -17 26 -15 0 -15 -4 2 -37z"/>
<path d="M1080 726 c-15 -19 -9 -56 12 -69 34 -22 66 41 36 71 -16 16 -33 15
-48 -2z m45 -31 c0 -33 -21 -41 -38 -14 -14 22 -1 51 20 47 13 -2 18 -13 18
-33z"/>
<path d="M1271 726 c-12 -15 -2 -27 33 -40 15 -5 17 -9 7 -19 -9 -9 -16 -9
-31 1 -17 10 -20 10 -20 -3 0 -20 44 -20 61 1 10 13 10 17 -2 25 -8 5 -20 9
-26 9 -16 0 -17 16 -2 26 6 3 15 0 20 -7 7 -11 9 -10 9 4 0 21 -32 23 -49 3z"/>
<path d="M1356 724 c-20 -19 -20 -48 -1 -64 18 -15 47 -10 53 10 5 13 3 13
-12 1 -15 -12 -19 -12 -34 2 -15 16 -14 17 15 17 38 0 49 13 27 34 -19 20 -29
20 -48 0z m42 -12 c2 -7 -6 -12 -17 -12 -21 0 -27 11 -14 24 9 9 26 2 31 -12z"/>
<path d="M1169 693 c5 -27 12 -39 26 -41 18 -2 19 -2 3 8 -11 6 -18 23 -18 40
0 17 -4 30 -8 30 -5 0 -6 -17 -3 -37z"/>
<path d="M1225 693 c0 -20 5 -38 10 -40 7 -2 9 12 7 37 -5 50 -18 53 -17 3z"/>
</g>
</svg>
